<?xml version="1.0" encoding="UTF-8" standalone="no"?>
<!-- Created with Inkscape (http://www.inkscape.org/) -->

<svg
   xmlns:dc="http://purl.org/dc/elements/1.1/"
   xmlns:cc="http://creativecommons.org/ns#"
   xmlns:rdf="http://www.w3.org/1999/02/22-rdf-syntax-ns#"
   xmlns:svg="http://www.w3.org/2000/svg"
   xmlns="http://www.w3.org/2000/svg"
   xmlns:sodipodi="http://sodipodi.sourceforge.net/DTD/sodipodi-0.dtd"
   xmlns:inkscape="http://www.inkscape.org/namespaces/inkscape"
   width="297mm"
   height="210mm"
   viewBox="0 0 297 210"
   version="1.1"
   id="svg8"
   inkscape:export-filename="/home/gordon/tina2/bilder/vereinigung.png"
   inkscape:export-xdpi="900"
   inkscape:export-ydpi="900"
   inkscape:version="0.92.4 (5da689c313, 2019-01-14)"
   sodipodi:docname="drawing.svg">
  <defs
     id="defs2" />
  <sodipodi:namedview
     id="base"
     pagecolor="#ffffff"
     bordercolor="#666666"
     borderopacity="1.0"
     inkscape:pageopacity="0.0"
     inkscape:pageshadow="2"
     inkscape:zoom="1.4"
     inkscape:cx="659.24146"
     inkscape:cy="456.47679"
     inkscape:document-units="mm"
     inkscape:current-layer="layer1"
     showgrid="false"
     inkscape:window-width="2490"
     inkscape:window-height="1376"
     inkscape:window-x="70"
     inkscape:window-y="27"
     inkscape:window-maximized="1" />
  <metadata
     id="metadata5">
    <rdf:RDF>
      <cc:Work
         rdf:about="">
        <dc:format>image/svg+xml</dc:format>
        <dc:type
           rdf:resource="http://purl.org/dc/dcmitype/StillImage" />
        <dc:title></dc:title>
      </cc:Work>
    </rdf:RDF>
  </metadata>
  <g
     inkscape:label="Layer 1"
     inkscape:groupmode="layer"
     id="layer1"
     transform="translate(0,-87)">
    <path
       style="fill:#0b1728;stroke:#0b1728;stroke-width:0.26458332px;stroke-linecap:butt;stroke-linejoin:miter;stroke-opacity:1"
       d="m 74.010036,130.9946 c 2.139859,2.74213 2.606226,3.77035 3.191021,5.3169 0.390986,1.034 0.399549,2.14606 -0.297165,3.14802 -5.394576,7.75805 -12.080583,15.15418 -12.822668,17.0357 -0.866102,2.19596 0.598073,1.77674 1.108916,1.4936 6.650211,-3.68589 6.474709,-3.49973 9.087164,-5.87993 1.356445,-1.23585 2.070451,-1.55834 3.608139,-1.06908 1.254194,0.39906 2.669287,1.35201 1.981592,2.47421 -4.968076,8.10706 -7.641394,9.06244 -10.456631,14.21532 -1.308231,2.39452 2.192367,1.02709 3.193106,0.74436 1.350672,-0.38159 1.447768,-0.56552 2.201617,-0.7849 3.437443,-1.00034 3.851915,2.07201 2.734068,3.78092 -2.575135,3.93674 -6.836627,9.65352 -8.710578,10.1171 -1.581392,0.3912 0.241681,-1.48461 0.324709,-1.8966 4.178113,-5.16192 3.630471,-5.29692 4.535476,-7.85272 -0.139262,-0.96985 -1.079967,-1.70047 -2.272487,-1.1858 -5.053005,0.57582 -7.836181,6.10869 -9.158033,5.79354 -1.288311,-0.30715 -1.492275,-1.52462 -0.934749,-2.72597 0.320428,-0.69046 1.121395,-0.70185 1.594815,-1.29789 3.64711,-4.59174 8.300077,-10.66472 10.557147,-14.83346 0.619295,-1.14382 0.569988,-2.99109 -1.202714,-1.46999 -2.724688,2.33797 -7.11002,5.23952 -10.665068,7.85943 -1.172036,0.86374 -3.644242,0.68971 -3.837659,-3.14168 -0.08995,-1.78185 0.881475,-1.81747 1.406522,-2.44596 5.789954,-6.93071 15.142664,-18.1677 13.709722,-26.16068 -0.133399,-0.74409 0.772788,-1.68416 1.123738,-1.23444 z"
       id="path880"
       inkscape:connector-curvature="0"
       sodipodi:nodetypes="ssssssssssssscccssssssssss"
       inkscape:export-xdpi="300"
       inkscape:export-ydpi="300" />
    <path
       style="fill:#0b1728;stroke:#0b1728;stroke-width:0.26458332px;stroke-linecap:butt;stroke-linejoin:miter;stroke-opacity:1"
       d="m 59.734738,192.63125 c 7.884425,-4.00585 14.111744,-9.26295 18.65421,-12.74996 0.402873,-0.30926 0.561054,0.9124 0.188293,1.25737 -3.655247,3.38269 -5.29972,7.29373 -12.302486,13.2447 -1.897126,1.61218 -5.911678,0.85106 -9.322029,0.0634 -0.701187,-0.16194 -1.174261,-0.83666 -0.568353,-1.22494 0.6786,-0.43487 2.651743,-0.23564 3.350365,-0.59059 z"
       id="path882"
       inkscape:connector-curvature="0"
       sodipodi:nodetypes="sssssss"
       inkscape:export-xdpi="300"
       inkscape:export-ydpi="300" />
    <path
       style="fill:#0b1728;stroke:#0b1728;stroke-width:0.26458332px;stroke-linecap:butt;stroke-linejoin:miter;stroke-opacity:1"
       d="m 97.687012,129.95655 c -1.600452,-0.69081 -0.445231,-1.52796 0.334087,-1.30294 1.333689,0.38508 3.340831,0.58409 5.182901,1.06895 2.50095,0.65829 4.07905,3.41873 4.17153,5.61279 0.0492,1.16821 -0.30077,1.61394 -1.46998,1.60361 -3.16851,-0.028 -3.92546,-5.12938 -8.218538,-6.98241 z"
       id="path884"
       inkscape:connector-curvature="0"
       sodipodi:nodetypes="ssssss"
       inkscape:export-xdpi="300"
       inkscape:export-ydpi="300" />
    <path
       style="fill:#0b1728;stroke:#0b1728;stroke-width:0.26458332px;stroke-linecap:butt;stroke-linejoin:miter;stroke-opacity:1"
       d="m 89.167796,148.29792 c 7.384572,-1.97092 15.377614,-6.48803 23.920614,-7.75081 1.74326,-0.25768 4.44697,-0.0566 5.71289,1.1693 1.4982,1.45083 -0.65851,2.35729 -2.13815,2.40542 -10.09185,0.32829 -16.56975,3.59554 -22.550868,6.71515 -0.592121,0.30884 -6.289895,1.11198 -8.185131,-0.96885 -0.402427,-0.44184 -0.360642,-0.79996 0.133635,-1.1359 0.850546,-0.57808 2.113388,-0.16912 3.10701,-0.43431 z"
       id="path886"
       inkscape:connector-curvature="0"
       sodipodi:nodetypes="ssssssss"
       inkscape:export-xdpi="300"
       inkscape:export-ydpi="300" />
    <path
       style="fill:#0b1728;stroke:#0b1728;stroke-width:0.26458332px;stroke-linecap:butt;stroke-linejoin:miter;stroke-opacity:1"
       d="m 99.958802,153.07536 c 0.119598,-0.47517 1.480938,-0.48988 1.469978,0 -0.18018,8.05519 -6.57394,14.42076 -6.815369,14.69983 -1.17143,1.35408 -0.690121,2.77428 0.935445,2.27179 5.507984,-1.70261 13.865154,-6.88691 14.031644,-7.34991 0.075,-0.20857 -1.76224,-2.89608 -3.34086,-3.0736 -0.38078,-0.0428 0.28733,-0.97784 0.66817,-0.93545 4.34561,0.48365 8.50922,2.23456 8.4858,6.8822 -0.008,1.51633 -1.33001,1.23269 -2.60587,0.73498 -1.23246,-0.48078 -1.95213,-3.81649 -2.80633,-2.80632 -4.90254,5.79769 -12.824297,7.15216 -11.459182,9.92237 3.752052,7.61398 -7.484413,25.08415 -19.544083,23.75358 -0.420043,-0.0463 0.07858,-0.97406 0.501131,-0.96885 7.20297,0.0889 18.009553,-14.76125 16.437075,-21.78246 -0.380793,-1.70026 -3.482427,2.49322 -5.211757,2.7061 -1.258273,0.1549 -1.916042,-0.66764 -2.80633,-1.57021 -0.722189,-0.73215 -0.970805,-3.253 -0.868625,-4.27631 0.136703,-1.36905 1.040861,-0.91616 1.837477,-2.03793 3.69216,-5.19919 9.00417,-7.87628 11.091686,-16.16981 z"
       id="path888"
       inkscape:connector-curvature="0"
       sodipodi:nodetypes="sssssssssssssssssss"
       inkscape:export-xdpi="300"
       inkscape:export-ydpi="300" />
    <path
       style="fill:#0b1728;stroke:#0b1728;stroke-width:0.26458332px;stroke-linecap:butt;stroke-linejoin:miter;stroke-opacity:1"
       d="m 103.50012,172.95354 c -0.28087,0.23673 -0.63442,-0.42329 -0.33408,-0.63477 1.74276,-1.2271 7.13109,-2.18431 4.97789,3.57473 -1.74541,4.66837 -4.16546,12.7283 -0.80181,17.07184 6.56534,8.47795 18.72457,-0.008 19.31023,-0.56794 2.724,-2.60292 2.69554,-6.15008 2.57247,-8.58604 -0.077,-1.52397 0.31917,-1.33264 1.06907,0 3.75505,6.67312 3.06267,12.34122 -2.17156,14.83345 -2.30472,1.09737 -5.33009,2.3396 -9.28843,2.17086 -1.00243,-0.0427 -2.25429,0.17611 -7.30729,-1.49597 -10.88648,-3.60241 -8.94993,-11.56427 -7.75777,-20.7769 0.23023,-1.77913 0.86655,-3.50668 1.00081,-3.95224 0.69684,-2.31256 -0.69275,-2.12316 -1.26953,-1.63702 z"
       id="path890"
       inkscape:connector-curvature="0"
       sodipodi:nodetypes="sssssssssssss"
       inkscape:export-xdpi="300"
       inkscape:export-ydpi="300" />
    <path
       style="fill:#0b1728;stroke:#0b1728;stroke-width:0.23223642px;stroke-linecap:butt;stroke-linejoin:miter;stroke-opacity:1"
       d="m 147.10162,165.1686 c -0.79256,0.19592 -0.98743,0.71915 -0.35189,1.23162 3.89478,3.1406 10.55643,2.9535 14.95538,1.34892 2.42979,-0.8863 6.74479,-3.76669 17.73666,-5.41496 4.0845,-0.61248 8.72972,-1.49148 13.69896,-1.21233 4.87641,0.27393 7.46257,1.318 3.34297,3.57757 -1.47119,0.80694 -2.51946,0.95854 -4.33999,1.7008 -1.28102,0.52231 -1.4468,1.22787 -0.64514,1.11433 5.72474,-0.81083 9.70613,-0.20934 12.96134,-1.05568 1.82293,-0.47396 1.45629,-1.24563 0.82107,-2.93242 -1.717,-4.55939 -7.58758,-6.55326 -13.07862,-5.74757 -5.19113,0.76168 -17.24892,1.89689 -28.26861,4.4573 -5.9,1.37085 -12.63702,1.89538 -16.83213,2.93242 z"
       id="path894"
       inkscape:connector-curvature="0"
       sodipodi:nodetypes="sssssssssssss"
       inkscape:export-xdpi="300"
       inkscape:export-ydpi="300" />
  </g>
</svg>
